<svg xmlns="http://www.w3.org/2000/svg" width="1000" height="560" viewBox="0 0 1000 560"><rect width="1000" height="560" fill="#fff"/><style>.a{stroke:#1b2b31;stroke-width:2}.g{stroke:#dbe4e6}.t{font:700 24px Arial;fill:#111}.l{font:600 15px Arial;fill:#222}.v{font:600 14px Arial;fill:#333}</style><text x="70" y="45" class="t">Representative RoadGuard AI Performance Metrics</text><line x1="95" y1="460" x2="910" y2="460" class="a"/><line x1="95" y1="90" x2="95" y2="460" class="a"/><line x1="95" y1="386" x2="910" y2="386" class="g"/><line x1="95" y1="312" x2="910" y2="312" class="g"/><line x1="95" y1="238" x2="910" y2="238" class="g"/><line x1="95" y1="164" x2="910" y2="164" class="g"/><rect x="150" y="160" width="120" height="300" fill="#2f80ed"/><rect x="335" y="145" width="120" height="315" fill="#27ae60"/><rect x="520" y="168" width="120" height="292" fill="#f2994a"/><rect x="705" y="278" width="120" height="182" fill="#9b51e0"/><text x="162" y="488" class="l">mAP@0.50</text><text x="352" y="488" class="l">Precision</text><text x="548" y="488" class="l">Recall</text><text x="722" y="488" class="l">mAP@.50:.95</text><text x="184" y="150" class="v">0.81</text><text x="370" y="135" class="v">0.85</text><text x="558" y="158" class="v">0.79</text><text x="744" y="268" class="v">0.49</text></svg>