<svg xmlns="http://www.w3.org/2000/svg" width="1200" height="620" viewBox="0 0 1200 620"><rect width="1200" height="620" fill="#ffffff"/><defs><marker id="a" viewBox="0 0 10 10" refX="8" refY="5" markerWidth="7" markerHeight="7" orient="auto"><path d="M0 0 10 5 0 10z" fill="#174f5b"/></marker></defs><style>.b{fill:#f8fbfc;stroke:#174f5b;stroke-width:2;rx:10}.t{font:700 21px Arial;fill:#102428}.s{font:500 14px Arial;fill:#4d5d61}.l{stroke:#174f5b;stroke-width:4;marker-end:url(#a)}</style><text x="50" y="48" class="t">RoadGuard AI Full-Stack System Architecture</text><rect class="b" x="60" y="110" width="210" height="95"/><text x="105" y="148" class="t">Road Image</text><text x="96" y="176" class="s">Camera or upload input</text><rect class="b" x="345" y="110" width="230" height="95"/><text x="410" y="148" class="t">Frontend</text><text x="382" y="176" class="s">Dashboard and visualization</text><rect class="b" x="650" y="110" width="230" height="95"/><text x="706" y="148" class="t">FastAPI</text><text x="700" y="176" class="s">REST inference service</text><rect class="b" x="935" y="110" width="210" height="95"/><text x="987" y="148" class="t">Docker</text><text x="970" y="176" class="s">Containerized runtime</text><rect class="b" x="185" y="330" width="240" height="105"/><text x="230" y="370" class="t">YOLO + ONNX</text><text x="224" y="398" class="s">CPU optimized detection</text><rect class="b" x="500" y="330" width="240" height="105"/><text x="556" y="370" class="t">Analytics</text><text x="535" y="398" class="s">Severity and priority</text><rect class="b" x="815" y="330" width="240" height="105"/><text x="850" y="370" class="t">Civic Output</text><text x="850" y="398" class="s">Maintenance decision support</text><line class="l" x1="270" y1="158" x2="340" y2="158"/><line class="l" x1="575" y1="158" x2="645" y2="158"/><line class="l" x1="880" y1="158" x2="930" y2="158"/><line class="l" x1="765" y1="205" x2="320" y2="330"/><line class="l" x1="425" y1="383" x2="495" y2="383"/><line class="l" x1="740" y1="383" x2="810" y2="383"/></svg>